<svg width="22" height="21" viewBox="0 0 22 21" fill="none" xmlns="http://www.w3.org/2000/svg">
<g id="Group 42991">
<g id="Group 42808">
<path id="Path 51944" d="M1.16293 8.97803V19.3237C1.21056 19.6131 1.36978 19.8728 1.60674 20.0457C1.8437 20.2186 2.13943 20.2904 2.42959 20.2474C3.6027 20.23 19.4302 20.2474 19.4302 20.2474C19.4302 20.2474 20.8263 20.2054 20.8295 19.3237C20.8328 18.442 20.8295 8.97803 20.8295 8.97803H1.16293Z" fill="#00B1CD" stroke="#00B1CD" stroke-width="1.08723"/>
<path id="Path 51945" d="M7.65029 6.56396H14.2671L14.7825 7.25109H7.13495L7.65029 6.56396Z" fill="#00B1CD"/>
<path id="Rectangle 19463" d="M14.4562 0.000224281L8.27216 3.01318L10.4175 7.41646L16.6015 4.4035L14.4562 0.000224281Z" fill="#00B1CD"/>
<path id="Path 51948" d="M1 8.80122L4.51648 4.68164H9.49711L10.6576 6.648L11.5919 6.17446L15.4078 4.68164L17.4198 4.70288L21 8.80335" stroke="#00B1CD" stroke-width="1.08723"/>
</g>
<path id="Path 51947" d="M7.49124 13.5638C7.49124 13.5344 8.65172 13.8759 8.65172 13.8759C8.54307 14.2016 8.50588 14.5476 8.54342 14.8888C8.58096 15.23 8.69254 15.5587 8.86937 15.8529C8.89221 15.8529 10.205 14.547 10.205 14.547L8.04971 12.4256C8.49228 11.8348 9.10189 11.3908 9.79946 11.1494C10.497 10.9079 11.2502 10.8821 11.9633 11.0729C11.9981 11.0816 11.6819 12.226 11.6819 12.226C11.357 12.127 11.0146 12.0975 10.6775 12.1389C10.3404 12.1803 10.0164 12.2913 9.72514 12.4659C9.71209 12.4931 10.9833 13.7358 10.9833 13.7358L13.0845 11.6335C13.7182 12.0418 14.1986 12.6475 14.4509 13.3578C14.7033 14.0681 14.7136 14.8433 14.4796 15.5599C14.4698 15.5599 13.334 15.2328 13.334 15.2328C13.435 14.9087 13.4653 14.5673 13.4221 14.2306C13.379 13.8938 13.2639 13.5696 13.0845 13.2813L11.7987 14.5724L13.9509 16.6874C13.5174 17.2988 12.9056 17.7606 12.199 18.0104C11.4924 18.2601 10.7257 18.2857 10.0044 18.0826L10.3123 16.9104C10.6416 17.0186 10.991 17.0507 11.3347 17.006C11.6785 16.9612 12.0081 16.8403 12.2988 16.6513L10.9822 15.3645C10.9822 15.3645 8.87921 17.5498 8.86725 17.539C8.25876 17.0968 7.80089 16.4788 7.55494 15.768C7.30899 15.0571 7.28613 14.2874 7.49124 13.5638Z" fill="white"/>
</g>
</svg>
