<svg id="vector" xmlns="http://www.w3.org/2000/svg" width="52" height="25" viewBox="0 0 52 25"><defs><clipPath id="clip_path_0"><path d="M0,0.5h52v24h-52z"/></clipPath></defs><g id="g_0"><path fill="#00B1CD" d="M12,24.5C14.373,24.5 16.693,23.796 18.667,22.478C20.64,21.159 22.178,19.285 23.087,17.092C23.995,14.899 24.232,12.487 23.769,10.159C23.306,7.831 22.163,5.693 20.485,4.015C18.807,2.336 16.669,1.194 14.341,0.731C12.013,0.268 9.601,0.505 7.408,1.413C5.215,2.322 3.341,3.86 2.022,5.833C0.704,7.807 0,10.127 0,12.5C0,14.076 0.31,15.636 0.913,17.092C1.516,18.548 2.4,19.871 3.515,20.985C4.629,22.1 5.952,22.983 7.408,23.587C8.864,24.19 10.424,24.5 12,24.5Z" clip-path="url(#clip_path_0)"/><path fill="#ffffff" d="M11.813,16.991C11.58,16.869 11.373,16.702 11.205,16.5V9.201C11.173,8.368 11.291,7.537 11.551,6.745L11.481,6.722C10.486,7.243 9.565,7.896 8.744,8.663C8.887,9.157 8.943,9.672 8.908,10.184V11.447H6.971V7.985C6.964,7.579 6.98,7.173 7.018,6.769H6.995C6.714,7.05 6.621,7.284 6.621,8.102V16.968C6.281,16.768 5.893,16.663 5.498,16.664C5.095,16.677 4.701,16.789 4.352,16.991L4.329,16.968C5.966,15.565 6.037,15.238 6.037,13.857V8.524C6.016,7.963 6.087,7.402 6.247,6.863L6.2,6.84C5.885,7.037 5.52,7.143 5.148,7.144C4.61,7.144 3.932,6.887 3.37,6.887C3.134,6.879 2.898,6.918 2.677,7.002C2.456,7.086 2.254,7.215 2.084,7.379C1.931,7.524 1.809,7.698 1.725,7.891C1.641,8.084 1.596,8.291 1.592,8.502C1.582,8.731 1.614,8.961 1.686,9.18H1.709C1.774,8.957 1.915,8.763 2.106,8.631C2.298,8.499 2.529,8.436 2.761,8.454C3.135,8.454 3.416,8.618 3.814,8.618C4.318,8.606 4.805,8.425 5.194,8.103L5.217,8.126C3.861,9.319 3.766,9.694 3.766,10.863V11.448C3.563,11.461 3.358,11.445 3.158,11.401C2.732,11.903 2.341,12.434 1.989,12.991L2.012,13.014C2.419,12.925 2.836,12.894 3.252,12.921H3.766V14.558C3.826,15.235 3.732,15.916 3.494,16.552C3.255,17.187 2.876,17.761 2.386,18.231L2.456,18.325C2.993,18.112 3.563,17.993 4.141,17.973C4.564,17.965 4.979,18.088 5.329,18.325H5.352C5.835,17.92 6.37,17.581 6.942,17.318L6.966,17.295V12.921H8.907V17.178C9.297,17.647 9.754,18.057 10.263,18.394H10.286C10.974,17.868 11.694,17.383 12.44,16.944L12.347,16.757C12.159,16.827 11.973,16.92 11.809,16.99"/><path fill="#ffffff" d="M18.827,16.524C18.43,16.627 18.021,16.682 17.611,16.687C17.052,16.701 16.496,16.606 15.974,16.406C16.699,16.102 17.471,15.774 18.056,15.47C17.997,15.044 17.966,14.614 17.962,14.184V10.137C17.962,9.529 17.985,9.318 18.219,9.084C18.453,9.107 18.64,9.132 18.827,9.155V16.524ZM19.178,16.383V9.178C19.318,9.197 19.459,9.205 19.6,9.201C20.582,9.201 21.354,8.569 21.751,6.652L21.658,6.628C21.478,6.868 21.239,7.056 20.965,7.175C20.69,7.294 20.389,7.339 20.091,7.307C18.945,7.307 17.05,6.839 15.647,6.839C14.674,6.801 13.725,7.146 13.003,7.798C12.781,8.008 12.606,8.262 12.489,8.545C12.373,8.827 12.316,9.13 12.325,9.436C12.322,9.799 12.402,10.159 12.559,10.488H12.605C12.697,10.094 12.891,9.731 13.167,9.436C13.433,9.189 13.747,9 14.088,8.879C14.43,8.759 14.793,8.709 15.155,8.734C16.08,8.77 17.002,8.864 17.915,9.015C17.214,9.272 16.325,9.647 15.763,9.904C15.861,10.381 15.908,10.868 15.903,11.355V15.307C15.947,15.644 15.89,15.986 15.74,16.29C15.468,16.165 15.222,15.991 15.015,15.775C14.667,15.42 14.392,14.999 14.208,14.537C14.023,14.075 13.931,13.582 13.938,13.084C13.939,12.538 14.05,11.998 14.263,11.496C14.477,10.994 14.79,10.54 15.183,10.161L15.136,10.09C14.385,10.34 13.704,10.765 13.148,11.33C12.451,12.041 12.064,13 12.071,13.996C12.065,14.564 12.172,15.127 12.385,15.653C12.597,16.178 12.913,16.657 13.311,17.06C13.795,17.527 14.366,17.892 14.993,18.133C15.62,18.375 16.289,18.487 16.96,18.465C17.581,18.483 18.199,18.376 18.777,18.151C19.356,17.926 19.883,17.587 20.328,17.155C21.031,16.442 21.432,15.488 21.451,14.488L21.358,14.465C20.885,15.343 20.113,16.023 19.183,16.383"/><path fill="#00B1CD" d="M30.761,17.781C30.607,17.665 30.415,17.55 30.261,17.397V5.261C30.261,5.261 30.185,5.261 30.146,5.261C29.685,5.722 27.688,7.527 25,8.487L25.192,8.717C25.576,8.64 26.728,8.218 26.728,8.218C26.728,8.218 26.92,8.602 26.92,9.408C26.92,10.983 26.92,17.205 26.92,17.205C26.69,17.397 26.267,17.704 26.267,17.704C26.805,18.434 27.765,19.163 28.533,19.739H28.572C29.685,18.933 30.492,18.434 31.759,17.704L31.606,17.435C31.298,17.55 31.03,17.665 30.722,17.819L30.761,17.781ZM28.572,19.509C27.65,18.818 26.959,18.242 26.536,17.742C26.651,17.665 27.151,17.281 27.151,17.281C27.151,17.281 27.151,10.906 27.151,9.293C27.151,7.68 26.92,8.103 26.92,8.103L27.304,7.911C27.304,7.911 27.573,8.448 27.573,9.216C27.573,11.06 27.573,16.936 27.573,16.936L26.882,17.473C26.882,17.473 27.343,18.011 28.572,18.933V19.509Z"/><path fill="#00B1CD" d="M41.746,8.314C41.247,7.431 38.981,5.779 38.059,5.28H38.021C37.406,5.51 36.485,6.048 35.486,6.624C34.68,7.123 32.759,8.391 32.759,8.391C32.759,8.391 32.99,9.504 32.99,11.041V16.878C33.489,17.8 35.448,19.182 36.446,19.72H36.485C36.485,19.72 37.061,19.336 37.329,19.182C39.403,17.915 41.132,17.416 41.861,17.185C41.784,16.801 41.708,16.417 41.708,15.688V8.314H41.746ZM36.446,19.528C35.448,18.99 33.796,17.761 33.182,16.878V10.925C33.182,9.543 32.99,8.583 32.99,8.583L33.451,8.314C33.451,8.314 33.719,9.12 33.719,10.618V16.686C34.219,17.454 35.755,18.529 36.485,18.99V19.566L36.446,19.528ZM38.405,13.307V17.685C37.061,16.878 36.331,16.148 36.331,16.148V8.775C36.331,8.199 36.292,7.738 36.216,7.354C36.869,7.815 38.213,8.813 38.405,9.12V13.307ZM39.134,17.761C39.019,17.8 38.866,17.877 38.789,17.915C38.789,17.915 38.75,17.915 38.712,17.877C38.674,17.877 38.635,17.8 38.635,17.8V14.036V9.082C38.213,8.544 36.792,7.507 36.216,7.085C36.216,7.008 36.177,6.931 36.139,6.854C36.254,6.778 36.408,6.701 36.523,6.624C36.869,6.893 38.943,8.429 39.134,8.736V14.036V17.761Z"/><path fill="#00B1CD" d="M51.848,15.688V8.314C51.349,7.431 49.083,5.779 48.161,5.28H48.123C47.508,5.51 46.587,6.048 45.588,6.624C44.782,7.123 42.861,8.391 42.861,8.391C42.861,8.391 43.092,9.504 43.092,11.041V16.878C43.591,17.8 45.55,19.182 46.548,19.72H46.587C46.587,19.72 47.163,19.336 47.431,19.182C49.505,17.915 51.234,17.416 51.963,17.185C51.886,16.801 51.81,16.417 51.81,15.688H51.848ZM46.548,19.528C45.55,18.99 43.898,17.761 43.284,16.878V10.925C43.284,9.543 43.092,8.583 43.092,8.583L43.553,8.314C43.553,8.314 43.821,9.12 43.821,10.618V16.686C44.321,17.454 45.857,18.529 46.587,18.99V19.566L46.548,19.528ZM48.507,13.307V17.685C47.201,16.878 46.433,16.148 46.433,16.148V8.775C46.433,8.199 46.395,7.738 46.318,7.354C46.971,7.815 48.315,8.813 48.507,9.12V13.307ZM49.198,17.761C49.083,17.8 48.929,17.877 48.853,17.915C48.853,17.915 48.814,17.915 48.776,17.877C48.737,17.877 48.699,17.8 48.699,17.8V14.036V9.082C48.276,8.544 46.855,7.507 46.279,7.085C46.279,7.008 46.241,6.931 46.202,6.854C46.318,6.778 46.471,6.701 46.587,6.624C46.932,6.893 49.006,8.429 49.198,8.736V14.036V17.761Z"/></g></svg>