<svg width="24" height="24" viewBox="0 0 24 24" fill="none" xmlns="http://www.w3.org/2000/svg">
<path d="M21 9.43497C21.0003 9.0878 20.919 8.74542 20.7628 8.4354C20.6065 8.12538 20.3796 7.85639 20.1004 7.65012C19.8211 7.44385 19.4974 7.30605 19.1551 7.24783C18.8128 7.18961 18.4617 7.21259 18.13 7.31493C17.7982 7.41727 17.4951 7.5961 17.2452 7.83702C16.9952 8.07793 16.8053 8.3742 16.6908 8.70194C16.5763 9.02968 16.5404 9.37974 16.5859 9.72391C16.6315 10.0681 16.7573 10.3967 16.9531 10.6834L14.8323 13.2958L12.9252 8.91249C13.273 8.61975 13.5224 8.22715 13.6396 7.7879C13.7568 7.34865 13.736 6.884 13.5802 6.45693C13.4244 6.02985 13.1411 5.66101 12.7686 5.40039C12.3961 5.13978 11.9525 5 11.4979 5C11.0433 5 10.5997 5.13978 10.2272 5.40039C9.85468 5.66101 9.57133 6.02985 9.41553 6.45693C9.25973 6.884 9.239 7.34865 9.35617 7.7879C9.47334 8.22715 9.72274 8.61975 10.0706 8.91249L8.16824 13.2934L6.04743 10.681C6.31986 10.2818 6.45437 9.80454 6.43046 9.32183C6.40654 8.83913 6.22553 8.37747 5.91497 8.00716C5.60442 7.63685 5.18134 7.37819 4.71018 7.27056C4.23903 7.16294 3.7456 7.21225 3.30506 7.41099C2.86452 7.60973 2.50101 7.94701 2.26988 8.37145C2.03875 8.7959 1.95268 9.28425 2.02477 9.76214C2.09686 10.24 2.32316 10.6813 2.66921 11.0186C3.01526 11.356 3.46209 11.571 3.94166 11.631L5.08795 18.5096C5.13724 18.8053 5.28981 19.074 5.51855 19.2678C5.74729 19.4616 6.03736 19.568 6.33717 19.568H16.6634C16.9632 19.568 17.2532 19.4616 17.482 19.2678C17.7107 19.074 17.8633 18.8053 17.9126 18.5096L19.0581 11.6342C19.5942 11.5672 20.0873 11.3068 20.4449 10.9018C20.8025 10.4968 20.9999 9.97522 21 9.43497ZM11.5003 6.2684C11.6881 6.2684 11.8718 6.32412 12.028 6.4285C12.1843 6.53288 12.306 6.68125 12.3779 6.85483C12.4498 7.02842 12.4686 7.21943 12.432 7.4037C12.3953 7.58798 12.3048 7.75725 12.172 7.8901C12.0391 8.02296 11.8699 8.11344 11.6856 8.15009C11.5013 8.18674 11.3103 8.16793 11.1367 8.09603C10.9631 8.02413 10.8148 7.90237 10.7104 7.74615C10.606 7.58993 10.5503 7.40626 10.5503 7.21837C10.5503 6.96642 10.6504 6.7248 10.8285 6.54664C11.0067 6.36849 11.2483 6.2684 11.5003 6.2684ZM3.26718 9.43497C3.26718 9.24708 3.32289 9.06342 3.42728 8.9072C3.53166 8.75097 3.68003 8.62921 3.85361 8.55731C4.02719 8.48541 4.2182 8.4666 4.40248 8.50325C4.58675 8.53991 4.75602 8.63038 4.88888 8.76324C5.02173 8.8961 5.11221 9.06536 5.14887 9.24964C5.18552 9.43392 5.16671 9.62493 5.09481 9.79851C5.02291 9.97209 4.90115 10.1205 4.74492 10.2248C4.5887 10.3292 4.40503 10.3849 4.21715 10.3849C3.9652 10.3849 3.72357 10.2849 3.54542 10.1067C3.36726 9.92855 3.26718 9.68692 3.26718 9.43497ZM18.7834 10.3849C18.5955 10.3849 18.4118 10.3292 18.2556 10.2248C18.0994 10.1205 17.9776 9.97209 17.9057 9.79851C17.8338 9.62493 17.815 9.43392 17.8517 9.24964C17.8883 9.06536 17.9788 8.8961 18.1116 8.76324C18.2445 8.63038 18.4138 8.53991 18.598 8.50325C18.7823 8.4666 18.9733 8.48541 19.1469 8.55731C19.3205 8.62921 19.4689 8.75097 19.5732 8.9072C19.6776 9.06342 19.7333 9.24708 19.7333 9.43497C19.7333 9.68692 19.6333 9.92855 19.4551 10.1067C19.2769 10.2849 19.0353 10.3849 18.7834 10.3849Z" fill="#00B1CD"/>
</svg>
