<svg width="24" height="24" viewBox="0 0 24 24" fill="none" xmlns="http://www.w3.org/2000/svg">
<g id="icons">
<path id="Vector" d="M20.2806 11.6397V20.28C20.2806 20.4709 20.2048 20.6541 20.0698 20.7891C19.9347 20.9241 19.7516 21 19.5606 21H14.5204C14.3295 21 14.1463 20.9241 14.0113 20.7891C13.8763 20.6541 13.8004 20.4709 13.8004 20.28V15.5998C13.8004 15.5043 13.7625 15.4127 13.695 15.3452C13.6274 15.2777 13.5359 15.2398 13.4404 15.2398H9.84025C9.74477 15.2398 9.6532 15.2777 9.58569 15.3452C9.51817 15.4127 9.48024 15.5043 9.48024 15.5998V20.28C9.48024 20.4709 9.40438 20.6541 9.26935 20.7891C9.13432 20.9241 8.95118 21 8.76021 21H3.72003C3.52906 21 3.34592 20.9241 3.21089 20.7891C3.07586 20.6541 3 20.4709 3 20.28V11.6397C3.00018 11.2578 3.15201 10.8916 3.42212 10.6217L10.6224 3.42145C10.8924 3.15159 11.2586 3 11.6403 3C12.0221 3 12.3882 3.15159 12.6583 3.42145L19.8585 10.6217C20.1286 10.8916 20.2805 11.2578 20.2806 11.6397Z" fill="#00B1CD"/>
</g>
</svg>
