<svg width="21" height="21" viewBox="0 0 21 21" fill="none" xmlns="http://www.w3.org/2000/svg">
<g id="Frame 1707481152">
<path id="Path 45813" d="M10.5 20.5C12.4778 20.5 14.4112 19.9135 16.0557 18.8147C17.7002 17.7159 18.9819 16.1541 19.7388 14.3268C20.4957 12.4996 20.6937 10.4889 20.3078 8.5491C19.922 6.60929 18.9696 4.82746 17.5711 3.42894C16.1725 2.03041 14.3907 1.078 12.4509 0.692151C10.5111 0.306299 8.50043 0.504333 6.67317 1.26121C4.8459 2.01809 3.28412 3.29981 2.1853 4.9443C1.08649 6.58879 0.5 8.52219 0.5 10.5C0.5 11.8132 0.758657 13.1136 1.2612 14.3268C1.76375 15.5401 2.50035 16.6425 3.42893 17.5711C4.35752 18.4997 5.45991 19.2362 6.67317 19.7388C7.88642 20.2413 9.18678 20.5 10.5 20.5Z" fill="#00B1CD"/>
<path id="Path 45814" d="M10.3437 14.2428C10.1497 14.1407 9.97754 14.0016 9.83707 13.8332V7.75099C9.81094 7.05701 9.90877 6.36394 10.126 5.70432L10.0674 5.68506C9.2378 6.11914 8.47062 6.66333 7.7867 7.30284C7.90585 7.71409 7.95198 8.14306 7.92299 8.57024V9.62284H6.30892V6.73765C6.30324 6.39941 6.31634 6.06111 6.34818 5.72432H6.32892C6.09484 5.95839 6.01707 6.15321 6.01707 6.83543V14.2236C5.7337 14.0565 5.41048 13.9689 5.08151 13.9702C4.74564 13.981 4.41765 14.0747 4.1267 14.2428L4.10744 14.2236C5.47188 13.0539 5.5304 12.7814 5.5304 11.631V7.18654C5.51325 6.71883 5.57255 6.25145 5.70596 5.80284L5.6667 5.78358C5.40361 5.94796 5.09988 6.0357 4.78966 6.03691C4.34151 6.03691 3.77633 5.82284 3.30818 5.82284C3.11115 5.81553 2.91468 5.84803 2.73051 5.91842C2.54634 5.9888 2.37826 6.09562 2.23633 6.23247C2.10936 6.35341 2.00775 6.49842 1.93742 6.65905C1.86709 6.81967 1.82945 6.99269 1.8267 7.16802C1.81818 7.35957 1.84453 7.55108 1.90448 7.73321H1.92373C1.9785 7.5472 2.09551 7.38565 2.25517 7.27561C2.41483 7.16558 2.60745 7.11374 2.80077 7.12876C3.11262 7.12876 3.3467 7.26506 3.67781 7.26506C4.09856 7.25537 4.50378 7.10429 4.82818 6.83617L4.84744 6.85543C3.71707 7.8495 3.63855 8.16135 3.63855 9.13617V9.62358C3.46865 9.63447 3.29807 9.62125 3.13188 9.58432C2.77635 10.0027 2.45061 10.4455 2.15707 10.9095L2.17633 10.9288C2.5154 10.8544 2.86327 10.8282 3.20966 10.851H3.63855V12.2154C3.68794 12.7792 3.61022 13.3468 3.41113 13.8765C3.21204 14.4062 2.89664 14.8845 2.48818 15.2762L2.5467 15.3539C2.99437 15.1767 3.46919 15.0777 3.9504 15.0614C4.30281 15.0543 4.64876 15.1565 4.94077 15.3539H4.96003C5.3622 15.0163 5.80792 14.7343 6.28522 14.5154L6.30447 14.4962V10.851H7.92225V14.3984C8.24771 14.7894 8.62852 15.1308 9.05262 15.4117H9.07188C9.6452 14.9731 10.2446 14.5697 10.8667 14.2036L10.7889 14.0473C10.6326 14.1058 10.4771 14.1836 10.3408 14.2421" fill="white"/>
<path id="Path 45815" d="M16.1891 13.8529C15.8581 13.939 15.5178 13.9847 15.1758 13.9892C14.7101 14.001 14.2465 13.9215 13.8114 13.7551C14.4158 13.5017 15.0588 13.2284 15.5462 12.9751C15.4973 12.6198 15.4713 12.2618 15.4684 11.9032V8.53064C15.4684 8.02397 15.4877 7.84841 15.6825 7.6536C15.8773 7.67286 16.0336 7.69286 16.1891 7.71212V13.8529ZM16.4817 13.7358V7.73138C16.598 7.74752 16.7155 7.75396 16.8328 7.75063C17.6514 7.75063 18.2951 7.22397 18.6262 5.62619L18.5484 5.60693C18.3985 5.80641 18.1993 5.96342 17.9703 6.06252C17.7413 6.16162 17.4905 6.19939 17.2425 6.17212C16.2877 6.17212 14.7084 5.78249 13.5388 5.78249C12.7283 5.75111 11.9376 6.03796 11.3358 6.58175C11.151 6.75668 11.0051 6.96861 10.9077 7.20371C10.8104 7.43882 10.7636 7.69181 10.7706 7.94619C10.7685 8.2495 10.8351 8.54936 10.9654 8.82323H11.004C11.0806 8.49495 11.242 8.19253 11.4721 7.94619C11.6939 7.741 11.9553 7.58331 12.2402 7.4828C12.5252 7.3823 12.8277 7.34111 13.1291 7.36175C13.9 7.39147 14.6681 7.46965 15.4291 7.59582C14.8447 7.80989 14.104 8.12249 13.6358 8.33656C13.7172 8.73429 13.7564 9.13949 13.7528 9.54545V12.8395C13.7892 13.1198 13.7418 13.4047 13.6165 13.658C13.39 13.5542 13.1849 13.4087 13.0121 13.2292C12.7222 12.933 12.4936 12.5824 12.3397 12.1976C12.1857 11.8128 12.1094 11.4014 12.1151 10.9869C12.1157 10.532 12.2078 10.0819 12.386 9.66339C12.5641 9.24484 12.8247 8.86641 13.1521 8.55064L13.1136 8.49138C12.4875 8.70036 11.9197 9.05444 11.4565 9.52471C10.8754 10.1176 10.5528 10.9167 10.5595 11.7469C10.5544 12.2197 10.6431 12.6888 10.8204 13.1271C10.9978 13.5654 11.2603 13.9641 11.5928 14.3003C11.9953 14.6892 12.472 14.9933 12.9943 15.1943C13.5167 15.3954 14.0742 15.4894 14.6336 15.4706C15.1507 15.4858 15.6655 15.3969 16.1477 15.2094C16.6298 15.0218 17.0693 14.7394 17.4402 14.3788C18.0253 13.7853 18.3602 12.9898 18.3758 12.1566L18.298 12.1373C17.9037 12.8692 17.2609 13.4361 16.4854 13.7358" fill="white"/>
</g>
</svg>
