<svg width="24" height="24" viewBox="0 0 24 24" fill="none" xmlns="http://www.w3.org/2000/svg">
<g id="icons">
<path id="Vector" d="M3.39064 16.2174L7.78068 20.6074C7.9045 20.7313 8.0515 20.8295 8.21329 20.8965C8.37508 20.9635 8.54849 20.998 8.72361 20.998C8.89874 20.998 9.07214 20.9635 9.23393 20.8965C9.39572 20.8295 9.54272 20.7313 9.66654 20.6074L18.6091 11.6648C18.733 11.541 18.8312 11.394 18.8983 11.2322C18.9653 11.0704 18.9998 10.897 18.9998 10.7219C18.9998 10.5468 18.9653 10.3734 18.8983 10.2116C18.8312 10.0498 18.733 9.90277 18.6091 9.77896L16.8858 8.0556L20.8025 4.13889C20.9276 4.0138 20.9979 3.84413 20.9979 3.66722C20.9979 3.49031 20.9276 3.32064 20.8025 3.19555C20.6774 3.07045 20.5077 3.00018 20.3308 3.00018C20.1539 3.00018 19.9842 3.07045 19.8592 3.19555L15.9424 7.11226L14.2191 5.38891C14.0953 5.26506 13.9483 5.16682 13.7865 5.0998C13.6247 5.03277 13.4513 4.99827 13.2762 4.99827C13.101 4.99827 12.9276 5.03277 12.7658 5.0998C12.6041 5.16682 12.4571 5.26506 12.3332 5.38891L3.39064 14.3315C3.26679 14.4553 3.16855 14.6023 3.10152 14.7641C3.0345 14.9259 3 15.0993 3 15.2744C3 15.4496 3.0345 15.623 3.10152 15.7848C3.16855 15.9465 3.26679 16.0935 3.39064 16.2174ZM13.2757 6.33142L14.9999 8.0556L12.5282 10.5265C12.4031 10.6516 12.3329 10.8212 12.3329 10.9981C12.3329 11.175 12.4031 11.3447 12.5282 11.4698C12.6533 11.5949 12.823 11.6652 12.9999 11.6652C13.1768 11.6652 13.3465 11.5949 13.4716 11.4698L15.9424 8.99811L17.6666 10.7223L14.7241 13.6648H10.3332V9.27395L13.2757 6.33142ZM4.33315 15.274L8.99987 10.6073V14.3315C8.99987 14.5083 9.0701 14.6779 9.19513 14.8029C9.32016 14.9279 9.48973 14.9982 9.66654 14.9982H13.3907L8.72403 19.6649L4.33315 15.2749V15.274ZM18.6666 15.6649C18.2051 15.6649 17.754 15.8017 17.3703 16.0581C16.9866 16.3145 16.6875 16.6789 16.5109 17.1053C16.3343 17.5316 16.2881 18.0008 16.3781 18.4534C16.4681 18.9061 16.6904 19.3218 17.0167 19.6481C17.343 19.9745 17.7588 20.1967 18.2114 20.2867C18.6641 20.3768 19.1332 20.3306 19.5596 20.154C19.9859 19.9774 20.3504 19.6783 20.6068 19.2946C20.8632 18.9108 21 18.4597 21 17.9982C21 17.3794 20.7542 16.7859 20.3166 16.3483C19.879 15.9107 19.2855 15.6649 18.6666 15.6649ZM18.6666 18.9982C18.4689 18.9982 18.2755 18.9396 18.1111 18.8297C17.9466 18.7198 17.8184 18.5636 17.7428 18.3809C17.6671 18.1982 17.6473 17.9971 17.6858 17.8031C17.7244 17.6091 17.8197 17.431 17.9595 17.2911C18.0994 17.1512 18.2776 17.056 18.4715 17.0174C18.6655 16.9788 18.8666 16.9986 19.0493 17.0743C19.2321 17.15 19.3882 17.2782 19.4981 17.4426C19.608 17.6071 19.6667 17.8004 19.6667 17.9982C19.6667 18.2634 19.5613 18.5178 19.3738 18.7053C19.1862 18.8929 18.9319 18.9982 18.6666 18.9982Z" fill="#445D78"/>
</g>
</svg>
