<svg xmlns="http://www.w3.org/2000/svg" width="47" height="20" viewBox="0 0 47 20">
    <path d="M6.371,7.224L6.371,9.43L9.154,9.43v1.138L6.371,10.568v2.25L9.9,12.818L9.9,14L4.886,14L4.886,6.047L9.9,6.047v1.177ZM10.952,10.111L13.8,10.111v1.133L10.952,11.244ZM17.9,10.046a2.229,2.229 0,0 0,0.709 -0.1,1.344 1.344,0 0,0 0.5,-0.291 1.18,1.18 0,0 0,0.3 -0.462,1.768 1.768,0 0,0 0.1,-0.608 1.6,1.6 0,0 0,-0.1 -0.578,1.142 1.142,0 0,0 -0.3,-0.44 1.321,1.321 0,0 0,-0.5 -0.278,2.368 2.368,0 0,0 -0.715,-0.1L16.793,7.189v2.855ZM17.9,6.046a4.539,4.539 0,0 1,1.381 0.187,2.657 2.657,0 0,1 0.962,0.522 2.072,2.072 0,0 1,0.564 0.8,2.766 2.766,0 0,1 0.184,1.023A2.826,2.826,0 0,1,20.8,9.641a2.2,2.2,0 0,1,-0.577 0.828,2.685 2.685,0 0,1 -0.965,0.539A4.312,4.312,0 0,1,17.9 11.2L16.793,11.2L16.793,14L15.314,14L15.314,6.047ZM24.72,11.59a7.492,7.492,0 0,0,-0.99 0.1,2.639 2.639,0 0,0 -0.644,0.19 0.846,0.846,0 0,0,-0.347 0.269,0.585 0.585,0 0,0 -0.1,0.335A0.59,0.59 0,0 0,22.846 13a0.918,0.918 0,0 0,0.553 0.154A1.612,1.612,0 0,0,24.122 13a2.148,2.148,0 0,0,0.6 -0.459ZM21.605,9.143a3.348,3.348 0,0 1,2.343 -0.891,2.29 2.29 0,0,1 0.885,0.162 1.871,1.871 0,0,1,0.66 0.451,1.93 1.93 0,0,1 0.41,0.69 2.652,2.652 0,0,1,0.14 0.88L26.043,14h-0.616a0.623,0.623 0,0 1,-0.3 -0.058,0.4 0.4,0 0,1 -0.165,-0.234L24.845,13.3a4.911,4.911,0 0,1,-0.418 0.338A2.461,2.461 0,0,1,24 13.885a2.275,2.275,0 0,1,-0.47 0.151,2.709 2.709,0 0,1 -0.553,0.052 2.167,2.167,0 0,1,-0.66 -0.1A1.45,1.45,0 0,1,21.8 13.7a1.3,1.3,0 0,1,-0.341 -0.478,1.7 1.7,0 0,1 -0.121,-0.665 1.325,1.325 0,0,1,0.071 -0.426,1.246 1.246 0,0,1 0.234,-0.4 1.946,1.946,0 0,1,0.421 -0.363,2.734 2.734,0 0,1 0.635,-0.3 5.489,5.489,0 0,1,0.877 -0.206,8.763 8.763,0 0,1 1.144,-0.1v-0.33a1.235,1.235 0,0,0,-0.242 -0.839,0.886 0.886,0 0,0 -0.7,-0.272 1.658,1.658 0,0,0,-0.547 0.077,2.252 2.252,0 0,0 -0.382,0.173l-0.3,0.173a0.593,0.593 0,0,1,-0.3 0.077,0.392 0.392,0 0,1,-0.242,-0.074 0.62,0.62,0 0,1,-0.16 -0.173ZM28.678,12.537a1.337,1.337,0 0,0,0.5 0.4,1.5 1.5,0 0,0 0.591,0.116 1.3,1.3 0,0,0,0.556 -0.116,1.089 1.089,0 0,0 0.421,-0.352 1.742,1.742,0 0,0,0.267 -0.6,3.41 3.41,0 0,0,0.094,-0.85 3.772,3.772,0 0,0,-0.08 -0.839,1.62 1.62,0 0,0,-0.228,-0.558 0.9,0.9,0 0,0,-0.36 -0.314,1.123,1.123 0,0,0,-0.481,-0.1 1.373,1.373,0 0,0,-0.72 0.179,2.187,2.187,0 0,0,-0.561,0.5ZM28.606,9.127a2.943,2.943,0 0,1,0.787 -0.633,2.113 2.113,0 0,1,1.034,-0.242 1.85,1.85,0 0,1,0.844 0.193,1.9 1.9,0 0,1,0.66,0.558 2.678,2.678,0 0,1,0.429 0.9,4.539 4.539,0 0,1,0.151,1.229 3.866,3.866,0 0,1,-0.171 1.172,2.867 2.867,0 0,1,-0.487,0.935 2.249,2.249,0 0,1,-0.764 0.619,2.224,2.224,0 0,1,-1,0.223 2.023,2.023,0 0,1,-0.809 -0.146,1.975,1.975,0 0,1,-0.6,-0.4v2.31L27.32,15.845L27.32,8.357h0.83A0.334,0.334,0 0,1,28.5 8.6ZM37.206,10.527a1.635,1.635,0 0,0,-0.074 -0.5,1.183,1.183,0 0,0,-0.223,-0.41 1.036,1.036,0 0,0,-0.377,-0.278,1.293,1.293,0 0,0,-0.531,-0.1 1.258,1.258,0 0,0,-0.927 0.336,1.645,1.645,0 0,0,-0.432,0.951ZM34.616,11.346a2.673,2.673,0 0,0,0.154 0.751,1.535,1.535,0 0,0 0.319,0.523 1.249,1.249,0 0,0,0.47 0.308,1.708,1.708,0 0,0,0.6,0.1 1.867,1.867,0 0,0,0.569,-0.077,2.669,2.669,0 0,0,0.418,-0.171q0.179,-0.094 0.314,-0.171a0.526,0.526 0,0 1,0.261,-0.077,0.281,0.281,0 0,1 0.253,0.127l0.39,0.5a2.264,2.264,0 0,1,-0.506 0.443,2.838,2.838,0 0,1,-0.586,0.286 3.2,3.2,0 0,1,-0.621 0.151,4.45,4.45,0 0,1,-0.613 0.044 3.014,3.014,0 0,1,-1.094,-0.2,2.45,2.45,0 0,1,-0.88,-0.577 2.709,2.709,0 0,1,-0.589,-0.946,3.661,3.661,0 0,1,-0.214,-1.306 3.124,3.124,0 0,1,0.187,-1.086,2.612,2.612,0 0,1,0.536,-0.885 2.525,2.525,0 0,1,0.852,-0.6,2.808,2.808,0 0,1,1.136,-0.22 2.762,2.762,0 0,1,0.985 0.171,2.145,2.145,0 0,1,0.775,0.5 2.306,2.306,0 0,1,0.509 0.8,2.992,2.992,0 0,1,0.184,1.086 0.882,0.882,0 0,1,-0.066 0.415,0.273 0.273,0 0,1,-0.253,0.107ZM40.727,9.333a2.433,2.433,0 0,1,0.627,-0.795,1.337,1.337,0 0,1,0.858,-0.289 1.049,1.049,0 0,1,0.627 0.17l-0.088,1.018a0.263,0.263,0 0,1,-0.08 0.14,0.22,0.22,0 0,1,-0.14 0.041 1.6,1.6,0 0,1,-0.245,-0.027,1.891,1.891,0 0,0,-0.316,-0.028 1.138,1.138,0 0,0,-0.4 0.066,1.01,1.01,0 0,0,-0.316,0.19 1.293,1.293,0 0,0,-0.247 0.3,2.925,2.925,0 0,0,-0.2,0.4L40.807,14L39.442,14L39.442,8.357h0.8a0.439,0.439,0 0,1,0.292 0.074,0.436,0.436,0 0,1 0.11,0.267Z" fill="#445D78"/>
    <path d="M4,0.5L43,0.5A3.5,3.5 0,0 1,46.5 4L46.5,16A3.5,3.5 0,0 1,43 19.5L4,19.5A3.5,3.5 0,0 1,0.5 16L0.5,4A3.5,3.5 0,0 1,4 0.5z" fill="none" stroke="#6E8098" stroke-width="1"/>
</svg>
