<svg width="22" height="21" viewBox="0 0 22 21" fill="none" xmlns="http://www.w3.org/2000/svg">
<g id="Group 42811">
<g id="Group 42808">
<path id="Path 51944" d="M1.16293 8.97803V19.3239C1.21056 19.6133 1.36978 19.873 1.60674 20.0459C1.8437 20.2188 2.13943 20.2906 2.42959 20.2476C3.6027 20.2302 19.4302 20.2476 19.4302 20.2476C19.4302 20.2476 20.8263 20.2056 20.8295 19.3239C20.8328 18.4421 20.8295 8.97803 20.8295 8.97803H1.16293Z" stroke="#445D78" stroke-width="1.08724"/>
<path id="Path 51945" d="M7.65026 6.56445H14.2671L14.7824 7.25159H7.13492L7.65026 6.56445Z" fill="#445D78"/>
<g id="Rectangle 19463">
<path id="Vector" d="M14.2558 0.581825L8.85361 3.21387L10.6179 6.83527L16.0201 4.20323L14.2558 0.581825Z" stroke="#445D78" stroke-width="0.869789"/>
</g>
<path id="Path 51948" d="M1 8.80179L4.51648 4.68213H9.49711L10.6576 6.64852L11.5919 6.17497L15.4078 4.68213L17.4198 4.70336L21 8.80391" stroke="#445D78" stroke-width="1.08724"/>
</g>
<path id="Path 51947" d="M7.49188 13.5614C7.49188 13.532 8.65236 13.8735 8.65236 13.8735C8.54371 14.1992 8.50652 14.5452 8.54406 14.8865C8.5816 15.2277 8.69318 15.5563 8.87002 15.8506C8.89285 15.8506 10.2057 14.5446 10.2057 14.5446L8.05035 12.4232C8.49292 11.8324 9.10253 11.3884 9.8001 11.1469C10.4977 10.9055 11.2508 10.8797 11.9639 11.0705C11.9987 11.0792 11.6826 12.2236 11.6826 12.2236C11.3577 12.1246 11.0152 12.0951 10.6782 12.1365C10.3411 12.1779 10.0171 12.2889 9.72578 12.4635C9.71273 12.4907 10.9839 13.7334 10.9839 13.7334L13.0851 11.6311C13.7188 12.0394 14.1992 12.6451 14.4516 13.3554C14.704 14.0657 14.7143 14.8409 14.4803 15.5575C14.4705 15.5575 13.3346 15.2305 13.3346 15.2305C13.4356 14.9063 13.4659 14.565 13.4228 14.2282C13.3796 13.8914 13.2646 13.5672 13.0851 13.279L11.7994 14.5701L13.9515 16.6851C13.518 17.2965 12.9062 17.7583 12.1996 18.0081C11.493 18.2578 10.7264 18.2834 10.005 18.0803L10.3129 16.9081C10.6423 17.0162 10.9916 17.0484 11.3354 17.0036C11.6791 16.9588 12.0088 16.8379 12.2994 16.649L10.9829 15.3621C10.9829 15.3621 8.87985 17.5475 8.86789 17.5366C8.2594 17.0945 7.80153 16.4765 7.55558 15.7656C7.30963 15.0548 7.28677 14.2851 7.49188 13.5614Z" fill="#445D78"/>
</g>
</svg>
