<svg width="21" height="21" viewBox="0 0 21 21" fill="none" xmlns="http://www.w3.org/2000/svg">
<g id="Frame 1707481151">
<path id="Path 45813" d="M10.5 20.5C12.4778 20.5 14.4112 19.9135 16.0557 18.8147C17.7002 17.7159 18.9819 16.1541 19.7388 14.3268C20.4956 12.4996 20.6937 10.4889 20.3078 8.5491C19.922 6.60929 18.9696 4.82746 17.571 3.42894C16.1725 2.03041 14.3907 1.078 12.4509 0.692151C10.5111 0.306299 8.5004 0.504333 6.67313 1.26121C4.84587 2.01809 3.28409 3.29981 2.18527 4.9443C1.08646 6.58879 0.499969 8.52219 0.499969 10.5C0.499969 11.8132 0.758627 13.1136 1.26117 14.3268C1.76372 15.5401 2.50032 16.6425 3.4289 17.5711C4.35749 18.4997 5.45988 19.2362 6.67313 19.7388C7.88639 20.2413 9.18675 20.5 10.5 20.5Z" fill="#445D78"/>
<path id="Path 45814" d="M10.3438 14.2428C10.1497 14.1407 9.9776 14.0016 9.83713 13.8332V7.75099C9.811 7.05701 9.90883 6.36394 10.126 5.70432L10.0675 5.68506C9.23786 6.11914 8.47068 6.66333 7.78676 7.30284C7.90591 7.71409 7.95204 8.14306 7.92305 8.57024V9.62284H6.30898V6.73765C6.3033 6.39941 6.3164 6.06111 6.34824 5.72432H6.32898C6.09491 5.95839 6.01713 6.15321 6.01713 6.83543V14.2236C5.73376 14.0565 5.41054 13.9689 5.08157 13.9702C4.7457 13.981 4.41771 14.0747 4.12676 14.2428L4.1075 14.2236C5.47194 13.0539 5.53046 12.7814 5.53046 11.631V7.18654C5.51331 6.71883 5.57261 6.25145 5.70602 5.80284L5.66676 5.78358C5.40367 5.94796 5.09994 6.0357 4.78972 6.03691C4.34157 6.03691 3.77639 5.82284 3.30824 5.82284C3.11121 5.81553 2.91474 5.84803 2.73057 5.91842C2.5464 5.9888 2.37832 6.09562 2.23639 6.23247C2.10942 6.35341 2.00781 6.49842 1.93748 6.65905C1.86715 6.81967 1.82951 6.99269 1.82676 7.16802C1.81824 7.35957 1.84459 7.55108 1.90454 7.73321H1.9238C1.97857 7.5472 2.09558 7.38565 2.25523 7.27561C2.41489 7.16558 2.60751 7.11374 2.80083 7.12876C3.11268 7.12876 3.34676 7.26506 3.67787 7.26506C4.09862 7.25537 4.50384 7.10429 4.82824 6.83617L4.8475 6.85543C3.71713 7.8495 3.63861 8.16135 3.63861 9.13617V9.62358C3.46872 9.63447 3.29813 9.62125 3.13194 9.58432C2.77641 10.0027 2.45067 10.4455 2.15713 10.9095L2.17639 10.9288C2.51546 10.8544 2.86333 10.8282 3.20972 10.851H3.63861V12.2154C3.688 12.7792 3.61029 13.3468 3.41119 13.8765C3.2121 14.4062 2.89671 14.8845 2.48824 15.2762L2.54676 15.3539C2.99443 15.1767 3.46925 15.0777 3.95046 15.0614C4.30287 15.0543 4.64882 15.1565 4.94083 15.3539H4.96009C5.36226 15.0163 5.80798 14.7343 6.28528 14.5154L6.30453 14.4962V10.851H7.92231V14.3984C8.24777 14.7894 8.62858 15.1308 9.05268 15.4117H9.07194C9.64526 14.9731 10.2446 14.5697 10.8668 14.2036L10.789 14.0473C10.6327 14.1058 10.4771 14.1836 10.3408 14.2421" fill="white"/>
<path id="Path 45815" d="M16.1892 13.8529C15.8581 13.939 15.5179 13.9847 15.1758 13.9892C14.7101 14.001 14.2465 13.9215 13.8114 13.7551C14.4158 13.5017 15.0588 13.2284 15.5462 12.9751C15.4973 12.6198 15.4713 12.2618 15.4684 11.9032V8.53064C15.4684 8.02397 15.4877 7.84841 15.6825 7.6536C15.8773 7.67286 16.0336 7.69286 16.1892 7.71212V13.8529ZM16.4818 13.7358V7.73138C16.5981 7.74752 16.7155 7.75396 16.8329 7.75063C17.6514 7.75063 18.2951 7.22397 18.6262 5.62619L18.5484 5.60693C18.3985 5.80641 18.1993 5.96342 17.9703 6.06252C17.7413 6.16162 17.4905 6.19939 17.2425 6.17212C16.2877 6.17212 14.7084 5.78249 13.5388 5.78249C12.7283 5.75111 11.9377 6.03796 11.3358 6.58175C11.151 6.75668 11.0052 6.96861 10.9078 7.20371C10.8104 7.43882 10.7637 7.69181 10.7706 7.94619C10.7685 8.2495 10.8351 8.54936 10.9655 8.82323H11.004C11.0806 8.49495 11.242 8.19253 11.4721 7.94619C11.6939 7.741 11.9553 7.58331 12.2403 7.4828C12.5252 7.3823 12.8277 7.34111 13.1292 7.36175C13.9 7.39147 14.6682 7.46965 15.4292 7.59582C14.8447 7.80989 14.104 8.12249 13.6358 8.33656C13.7172 8.73429 13.7564 9.13949 13.7529 9.54545V12.8395C13.7893 13.1198 13.7418 13.4047 13.6166 13.658C13.39 13.5542 13.1849 13.4087 13.0121 13.2292C12.7222 12.933 12.4937 12.5824 12.3397 12.1976C12.1858 11.8128 12.1094 11.4014 12.1151 10.9869C12.1157 10.532 12.2078 10.0819 12.386 9.66339C12.5642 9.24484 12.8247 8.86641 13.1521 8.55064L13.1136 8.49138C12.4875 8.70036 11.9197 9.05444 11.4566 9.52471C10.8754 10.1176 10.5528 10.9167 10.5595 11.7469C10.5544 12.2197 10.6431 12.6888 10.8205 13.1271C10.9978 13.5654 11.2604 13.9641 11.5929 14.3003C11.9954 14.6892 12.472 14.9933 12.9944 15.1943C13.5167 15.3954 14.0742 15.4894 14.6336 15.4706C15.1507 15.4858 15.6656 15.3969 16.1477 15.2094C16.6298 15.0218 17.0693 14.7394 17.4403 14.3788C18.0254 13.7853 18.3603 12.9898 18.3758 12.1566L18.2981 12.1373C17.9037 12.8692 17.2609 13.4361 16.4855 13.7358" fill="white"/>
</g>
</svg>
