<svg width="24" height="24" viewBox="0 0 24 24" fill="none" xmlns="http://www.w3.org/2000/svg">
<g id="icons">
<path id="Vector" d="M19.8577 10.6213L12.6578 3.42143C12.3878 3.15158 12.0216 3 11.6399 3C11.2582 3 10.892 3.15158 10.622 3.42143L3.4221 10.6213C3.28774 10.7547 3.18123 10.9134 3.10877 11.0883C3.0363 11.2632 2.99934 11.4508 3.00001 11.6401V20.28C3.00001 20.471 3.07587 20.6541 3.21089 20.7891C3.34591 20.9241 3.52905 21 3.72 21H9.47993C9.67088 21 9.85401 20.9241 9.98904 20.7891C10.1241 20.6541 10.1999 20.471 10.1999 20.28V15.2401H13.0799V20.28C13.0799 20.471 13.1557 20.6541 13.2908 20.7891C13.4258 20.9241 13.6089 21 13.7999 21H19.5598C19.7508 21 19.9339 20.9241 20.0689 20.7891C20.2039 20.6541 20.2798 20.471 20.2798 20.28V11.6401C20.2805 11.4508 20.2435 11.2632 20.171 11.0883C20.0986 10.9134 19.9921 10.7547 19.8577 10.6213ZM18.8398 19.56H14.5199V14.5201C14.5199 14.3291 14.444 14.146 14.309 14.011C14.174 13.8759 13.9908 13.8001 13.7999 13.8001H9.47993C9.28897 13.8001 9.10584 13.8759 8.97082 14.011C8.83579 14.146 8.75994 14.3291 8.75994 14.5201V19.56H4.43999V11.6401L11.6399 4.44021L18.8398 11.6401V19.56Z" fill="#445D78"/>
</g>
</svg>
