<svg xmlns="http://www.w3.org/2000/svg"
    width="14.035"
    height="16.645"
    viewBox="0 0 14.035 16.645">
    <path
        d="M9.229 6.752a3.739 3.739 0 1 0-4.434 0A7.034 7.034 0 0 0 0 13.401c0 .754.413 1.8 2.383 2.53a13.938 13.938 0 0 0 4.628.712c3.5 0 7.023-1 7.023-3.234A7.034 7.034 0 0 0 9.229 6.752ZM4.382 3.752a2.63 2.63 0 1 1 2.63 2.636 2.63 2.63 0 0 1-2.63-2.636ZM7.012 15.533c-3.326 0-5.914-.934-5.914-2.126a5.916 5.916 0 1 1 11.831 0c-.001.928-2.589 1.862-5.914 1.862Z"
        fill="#445D78" />
</svg>
