<svg id="vector" xmlns="http://www.w3.org/2000/svg" width="190.573" height="23.409" viewBox="0 0 190.573 23.409"><path fill="#333333" d="m34.218,20.601 l-0.364,0.277a3.168,3.168 0,0 0,-1.9 -0.555,4.984 4.984,0 0,0 -2.2,0.513v-0.018a4.615,4.615 0,0 1,2.585 -0.747,3 3,0 0,1 1.88,0.534m147.318,-0.32a0.791,0.791 0,0 1,0.171 -0.384,2.222 2.222,0 0,1 0.747,-0.107 4.093,4.093 0,0 1,2.905 1.025l-0.342,0.214a4.014,4.014 0,0 0,-2.692 -0.9,2.083 2.083,0 0,0 -0.79,0.149m-92.779,0a0.792,0.792 0,0 1,0.171 -0.385,2.223 2.223,0 0,1 0.747,-0.107 3.888,3.888 0,0 1,2.735 1.026l-0.342,0.214a3.889,3.889 0,0 0,-2.521 -0.9,2.171 2.171,0 0,0 -0.79,0.149m-35.676,-1.41a10.576,10.576 0,0 0,2.094 1.773l-0.427,0.278a10.389,10.389 0,0 1,-2.051 -1.773zM154.939,18.869a10.577,10.577 0,0 0,2.094 1.773l-0.427,0.278a10.391,10.391 0,0 1,-2.051 -1.773zM117.874,18.869a10.576,10.576 0,0 0,2.094 1.773l-0.427,0.278a10.388,10.388 0,0 1,-2.051 -1.773zM148.574,18.741a8.948,8.948 0,0 0,2.286 1.9l-0.426,0.277a9.782,9.782 0,0 1,-2.243 -1.9zM46.695,18.741a9.331,9.331 0,0 0,2.286 1.9l-0.427,0.278a9.782,9.782 0,0 1,-2.243 -1.9zM99.504,18.463a15.115,15.115 0,0 0,2.991 2.264l-0.427,0.3a14.686,14.686 0,0 1,-2.948 -2.286zM108.219,20.92a7.016,7.016 0,0 1,-2.008 -1.794v-2.094a15.9,15.9 0,0 0,-0.085 -1.88l0.449,-0.171c0.021,0.513 0.064,1.175 0.064,1.837v2.158a6.475,6.475 0,0 0,2.003 1.647zM187.304,19.19v-3.7l-1.26,-0.556 0.256,-0.278 1.432,0.619v4.251l-0.064,0.021zM94.354,19.19v-3.7l-1.26,-0.556 0.256,-0.278 1.432,0.619v4.251l-0.064,0.021zM109.329,15.69a7.25,7.25 0,0 1,0.15 -1.837,10.709 10.709,0 0,0 1.9,0.342v4.486c-0.342,0.15 -0.706,0.278 -1,0.427a4.838,4.838 0,0 1,-1.026 -0.791v-2.629zM36.629,11.738h3.076v0.363h-3.073zM28.468,12.208 L28.853,11.738h2.371v0.363h-1.022a10.185,10.185 0,0 0,-1.73 0.107m39.393,8.438 l-0.427,0.278a7.651,7.651 0,0 1,-2.179 -1.987v-6.11c0,-1.453 -0.021,-2.072 -0.064,-2.585l0.47,-0.192v8.737a6.989,6.989 0,0 0,2.2 1.859m38.581,-8.994a32.156,32.156 0,0 0,2.158 -1.645,7.565 7.565,0 0,0 2.777,1.175v2.536a7.484,7.484 0,0 1,-4.935 -2.072m69.065,-1.646 l0.064,-0.021a21.192,21.192 0,0 0,2.072 3.461l-2.136,1.154zM185.06,15.661 L184.782,15.961 181.962,14.636v-3.183a13.3,13.3 0,0 0,-0.085 -1.473l0.513,-0.15v4.593zM92.11,15.661 L91.832,15.961 89.012,14.636v-3.183a13.292,13.292 0,0 0,-0.085 -1.473l0.513,-0.15v4.593zM145.453,18.823a7.482,7.482 0,0 1,-5.533 2.329,8.005 8.005,0 0,1 -5.789,-2.179 6.845,6.845 0,0 1,-2.008 -4.956,5.8 5.8,0 0,1 1.88,-4.251l0.021,0.021a5.938,5.938 0,0 0,-1.473 4.037,6.779 6.779,0 0,0 2.008,4.871 7.482,7.482 0,0 0,5.512 2.051,7.771 7.771,0 0,0 5.383,-1.923zM99.46,9.918h-0.747l0.214,-0.385h0.534zM105.335,9.555 L104.993,10.004a11.9,11.9 0,0 0,-2.008 -0.086v-0.385h2.307zM175.79,20.985a27.136,27.136 0,0 1,-3.439 -3.546v-5.4c0,-1.068 -0.064,-2.008 -0.107,-2.371l0.449,-0.107a17.566,17.566 0,0 1,0.086 2.094v5.618a27.487,27.487 0,0 0,3.418 3.461zM113.774,20.643 L113.347,20.921a8.507,8.507 0,0 1,-1.705 -1.922v-8.011a7.819,7.819 0,0 1,-2.864 -1.2l0.3,-0.3a8.406,8.406 0,0 0,2.969 1.239v8.1a10.482,10.482 0,0 0,1.73 1.816m-52.488,0 l-0.427,0.278a10.029,10.029 0,0 1,-1.795 -1.624L59.067,10.518a3.765,3.765 0,0 0,-1.025 -1l0.385,-0.171a4.171,4.171 0,0 1,1.068 1.068v8.737a9.606,9.606 0,0 0,1.795 1.5m64.772,0 l-0.427,0.278a10.03,10.03 0,0 1,-1.795 -1.624L123.84,10.518a3.765,3.765 0,0 0,-1.025 -1l0.385,-0.171a4.171,4.171 0,0 1,1.068 1.068v8.737a10.362,10.362 0,0 0,1.795 1.5m37.086,0 l-0.427,0.278a10.028,10.028 0,0 1,-1.794 -1.624L160.928,10.518a3.765,3.765 0,0 0,-1.026 -1l0.385,-0.171a4.171,4.171 0,0 1,1.068 1.068v8.737a10.361,10.361 0,0 0,1.795 1.5m5.769,0 l-0.427,0.278a10.029,10.029 0,0 1,-1.795 -1.624L166.697,10.518a3.691,3.691 0,0 0,-1.068 -1.026l0.384,-0.171a4.735,4.735 0,0 1,1.089 1.089v8.738a11.5,11.5 0,0 0,1.816 1.5m-50.822,-2.179v-8.011a4.39,4.39 0,0 0,-0.9 -0.983l0.363,-0.192a5.38,5.38 0,0 1,0.961 1v7.861l-0.385,0.3h-0.043zM148.796,18.319v-7.861a5.016,5.016 0,0 0,-0.9 -0.983l0.363,-0.192a5.4,5.4 0,0 1,0.961 1v7.735l-0.385,0.3zM77.829,18.789a6.179,6.179 0,0 0,2.179 1.837l-0.427,0.278a6.652,6.652 0,0 1,-2.179 -1.987v-8.78a4.022,4.022 0,0 0,-0.961 -0.662l0.363,-0.192a5.335,5.335 0,0 1,1 0.747v8.759zM155.184,18.469v-8.011a4.391,4.391 0,0 0,-0.9 -0.983l0.363,-0.192a5.382,5.382 0,0 1,0.961 1v7.861l-0.385,0.3h-0.043zM46.939,18.319v-7.861a5.014,5.014 0,0 0,-0.9 -0.983l0.363,-0.192a5.4,5.4 0,0 1,0.961 1v7.735l-0.385,0.3zM53.305,18.469v-8.011a4.391,4.391 0,0 0,-0.9 -0.983l0.363,-0.192a5.377,5.377 0,0 1,0.961 1v7.861l-0.384,0.3h-0.043zM83.171,9.817a3.506,3.506 0,0 0,-0.62 -0.427l0.363,-0.192a3.214,3.214 0,0 1,0.662 0.513v9.122a7.193,7.193 0,0 0,1.709 1.816l-0.427,0.278a6.4,6.4 0,0 1,-1.709 -1.987L83.149,9.818zM68.516,12.017a9.922,9.922 0,0 1,0.278 -3.162c0.534,0.3 1.154,0.662 1.9,1.111v8.652c-0.385,0.149 -0.79,0.3 -1.154,0.47a4.739,4.739 0,0 1,-1.025 -0.833zM189.258,10.393 L188.958,10.778a1.593,1.593 0,0 1,-0.556 0.085,4.513 4.513,0 0,1 -3.461,-1.624v-0.427h0.064a4.621,4.621 0,0 0,3.525 1.688,2.2 2.2,0 0,0 0.726,-0.15zM96.33,10.393 L96.03,10.778a1.593,1.593 0,0 1,-0.555 0.085,4.513 4.513,0 0,1 -3.461,-1.624v-0.427h0.064a4.621,4.621 0,0 0,3.525 1.688,2.2 2.2,0 0,0 0.726,-0.15zM177.872,13.341a26.006,26.006 0,0 1,-2.35 -3.995v-0.662l0.064,-0.021a24.547,24.547 0,0 0,2.649 4.507zM159.777,19.28 L159.606,19.002c-0.214,0.085 -0.427,0.171 -0.62,0.256a2.616,2.616 0,0 1,-0.556 -0.385v-8.674c0.363,-0.192 0.79,-0.385 1.2,-0.555a3.712,3.712 0,0 1,1.026 0.983v8.846a9.521,9.521 0,0 0,2.051 1.837h0.064a30.333,30.333 0,0 1,3.055 -2.051l-0.184,-0.281 -0.6,0.256a3.53,3.53 0,0 1,-0.876 -0.706v-8.33c0.363,-0.192 0.79,-0.384 1.2,-0.555a3.716,3.716 0,0 1,1.026 0.983v8.844a9.522,9.522 0,0 0,2.051 1.837h0.064a39.784,39.784 0,0 1,3.268 -2.243l-0.171,-0.278a8.992,8.992 0,0 1,-0.833 0.363,2.5 2.5,0 0,1 -0.833,-0.62v-8.758a5.56,5.56 0,0 0,-2.2 -2.243h-0.064a13.365,13.365 0,0 0,-3.546 2.158,5.245 5.245,0 0,0 -2.158,-2.158h-0.064a12.737,12.737 0,0 0,-3.5 2.137,8.018 8.018,0 0,0 -1.965,-2.137h-0.064a18.4,18.4 0,0 0,-3.525 2.414l0.214,0.256c0.278,-0.192 0.62,-0.384 0.919,-0.555a7.157,7.157 0,0 1,0.876 0.919v8.056c-0.256,0.192 -0.47,0.363 -0.706,0.534v0.064a12.162,12.162 0,0 0,2.414 2.094h0.064a28.161,28.161 0,0 1,3.14 -2.029m-107.753,-0.235 l-0.171,-0.278c-0.363,0.15 -0.662,0.278 -0.961,0.427a3.779,3.779 0,0 1,-0.726 -0.513v-9.015a7.5,7.5 0,0 0,-1.965 -2.158h-0.064a18.394,18.394 0,0 0,-3.525 2.414l0.214,0.257a10.531,10.531 0,0 1,0.919 -0.556,7.155 7.155,0 0,1 0.876,0.919L46.617,18.418a8,8 0,0 1,-0.706 0.555v0.064a10.628,10.628 0,0 0,2.606 2.243h0.064a45.557,45.557 0,0 1,3.439 -2.243m70.947,0.085 l-0.171,-0.278c-0.342,0.15 -0.62,0.256 -0.919,0.385a2.781,2.781 0,0 1,-0.534 -0.385v-8.674c0.363,-0.192 0.79,-0.384 1.2,-0.555a3.714,3.714 0,0 1,1.026 0.983v8.844a9.523,9.523 0,0 0,2.051 1.837h0.064a32.2,32.2 0,0 1,3.268 -2.243l-0.171,-0.278a8.967,8.967 0,0 1,-0.833 0.363,2.5 2.5,0 0,1 -0.833,-0.619v-8.754a5.56,5.56 0,0 0,-2.2 -2.243h-0.073a12.737,12.737 0,0 0,-3.5 2.137,8.02 8.02,0 0,0 -1.965,-2.137h-0.065a18.392,18.392 0,0 0,-3.525 2.414l0.214,0.256a10.515,10.515 0,0 1,0.919 -0.556,7.155 7.155,0 0,1 0.876,0.919v8.054a7.529,7.529 0,0 1,-0.706 0.534v0.064a12.162,12.162 0,0 0,2.414 2.094h0.064a30.822,30.822 0,0 1,3.4 -2.158M80.642,9.364a8.61,8.61 0,0 0,-2.051 -1.837h-0.064c-1.239,0.747 -2.008,1.346 -3.268,2.243l0.171,0.278c0.256,-0.15 0.513,-0.278 0.747,-0.427a4.413,4.413 0,0 1,0.919 0.662v8.78a7.552,7.552 0,0 0,2.435 2.2h0.064a47.995,47.995 0,0 1,3.247 -2.179,9.062 9.062,0 0,0 1.987,2.179h0.064c1.111,-0.812 2.35,-1.709 3.4,-2.371l-0.171,-0.278c-0.342,0.149 -0.641,0.3 -0.961,0.449a4.477,4.477 0,0 1,-0.747 -0.662v-8.2c0.256,-0.192 0.449,-0.363 0.706,-0.534v-0.064a18.286,18.286 0,0 0,-2.414 -2.094L84.642,7.509c-1.282,0.747 -2.158,1.325 -3.4,2.179l0.171,0.278 0.833,-0.449a3.588,3.588 0,0 1,0.62 0.427v8.652c-0.427,0.171 -0.812,0.342 -1.2,0.513a4.745,4.745 0,0 1,-1.025 -0.833zM153.895,19.041 L153.724,18.763c-0.363,0.15 -0.662,0.278 -0.961,0.427a3.78,3.78 0,0 1,-0.726 -0.513v-9.015a7.5,7.5 0,0 0,-1.965 -2.158h-0.064a18.391,18.391 0,0 0,-3.525 2.414l0.214,0.257a10.523,10.523 0,0 1,0.919 -0.556,7.157 7.157,0 0,1 0.876,0.919L148.492,18.418a8.018,8.018 0,0 1,-0.706 0.555v0.064a10.629,10.629 0,0 0,2.606 2.243h0.064a38.419,38.419 0,0 1,3.439 -2.243m-95.727,0.085 l-0.171,-0.278c-0.342,0.15 -0.62,0.256 -0.919,0.385a2.78,2.78 0,0 1,-0.534 -0.385v-8.674c0.363,-0.192 0.79,-0.384 1.2,-0.555a3.714,3.714 0,0 1,1.025 0.983v8.844a9.523,9.523 0,0 0,2.051 1.837h0.064a32.2,32.2 0,0 1,3.268 -2.243l-0.171,-0.278a8.974,8.974 0,0 1,-0.833 0.363,2.5 2.5,0 0,1 -0.833,-0.619v-8.754a5.561,5.561 0,0 0,-2.2 -2.243h-0.073a12.737,12.737 0,0 0,-3.5 2.137,8.021 8.021,0 0,0 -1.965,-2.137h-0.064a18.393,18.393 0,0 0,-3.525 2.414l0.214,0.256a10.517,10.517 0,0 1,0.919 -0.556,7.153 7.153,0 0,1 0.876,0.919v8.054a7.531,7.531 0,0 1,-0.706 0.534v0.064a12.16,12.16 0,0 0,2.414 2.094h0.064a32.978,32.978 0,0 1,3.4 -2.158m117.345,-3.162v-0.662l5.341,-2.864v-0.085a47.053,47.053 0,0 1,-3.1 -4.871h-0.064a39.927,39.927 0,0 1,-5.789 1.965,18.6 18.6,0 0,1 0.171,2.82v5.3a25.809,25.809 0,0 0,3.611 3.717h0.107a58.416,58.416 0,0 1,5.042 -2.991l-0.256,-0.385c-0.812,0.385 -1.473,0.726 -2.137,1.025a21.355,21.355 0,0 1,-2.926 -2.969m-62.187,5.322h0.064c1.111,-0.812 2.35,-1.709 3.4,-2.371l-0.171,-0.278c-0.342,0.15 -0.641,0.3 -0.961,0.449a4.469,4.469 0,0 1,-0.747 -0.662v-6.665a9.082,9.082 0,0 1,0.171 -2.371,16.923 16.923,0 0,1 -4.614,-1.9h-0.064a20.78,20.78 0,0 1,-4.678 4.059v0.085a6.57,6.57 0,0 0,3.311 2.094,28 28,0 0,1 -3.247,1.325 14.5,14.5 0,0 1,0.15 2.136v2.131a6.911,6.911 0,0 0,2.265 2.008h0.064c1,-0.726 2.094,-1.453 3.162,-2.137a8.83,8.83 0,0 0,1.9 2.094m71.715,0.064a17.853,17.853 0,0 1,5.383 -2.5,6.452 6.452,0 0,1 -0.15,-1.538v-3.46l-3.311,-1.453h-0.086l-0.961,1.068 -1,-0.449v-3.354a4.645,4.645 0,0 0,3.4 1.453,3.939 3.939,0 0,0 0.726,-0.086 5.64,5.64 0,0 0,1.538 -3.5,1.428 1.428,0 0,0 -0.427,0 3.041,3.041 0,0 1,-0.085 0.726,2.125 2.125,0 0,1 -0.812,0.171 3.324,3.324 0,0 1,-2.286 -0.983h-0.064a17.255,17.255 0,0 1,-5.383 2.35,9.424 9.424,0 0,1 0.15,1.88v3.162l3.1,1.41h0.086l0.983,-1.089 1.175,0.513v3.333a5.816,5.816 0,0 0,-3.8 -1.324,3.944 3.944,0 0,0 -0.726,0.085 5.7,5.7 0,0 0,-1.538 3.525,1.436 1.436,0 0,0 0.427,0 3.043,3.043 0,0 1,0.085 -0.726,2.127 2.127,0 0,1 0.812,-0.171 3.855,3.855 0,0 1,2.713 0.983h0.064zM92.097,21.347a17.854,17.854 0,0 1,5.383 -2.5,6.451 6.451,0 0,1 -0.15,-1.538v-3.46l-3.311,-1.453h-0.086l-0.961,1.068 -1,-0.449v-3.354a4.645,4.645 0,0 0,3.4 1.453,3.938 3.938,0 0,0 0.726,-0.086 5.64,5.64 0,0 0,1.538 -3.5,1.43 1.43,0 0,0 -0.427,0 3.043,3.043 0,0 1,-0.085 0.726,2.125 2.125,0 0,1 -0.812,0.171 3.324,3.324 0,0 1,-2.286 -0.983h-0.044a17.255,17.255 0,0 1,-5.383 2.35,9.424 9.424,0 0,1 0.15,1.88v3.162l3.1,1.41h0.086l0.983,-1.089 1.175,0.513v3.333a5.565,5.565 0,0 0,-3.631 -1.324,3.944 3.944,0 0,0 -0.726,0.085 5.694,5.694 0,0 0,-1.539 3.525,1.434 1.434,0 0,0 0.427,0 3.044,3.044 0,0 1,0.086 -0.726,2.127 2.127,0 0,1 0.812,-0.171 3.728,3.728 0,0 1,2.542 0.983h0.043zM138.283,17.757 L138.262,17.736a4.677,4.677 0,0 0,0.192 -1.88v-6.194a11.288,11.288 0,0 0,-0.192 -2.094l0.449,-0.192a12.586,12.586 0,0 1,0.171 2.094v6.067c-0.021,1.453 -0.128,1.752 -0.6,2.222m-65.178,2.884 l-0.427,0.278a8.208,8.208 0,0 1,-1.709 -1.987L70.968,9.818c-4.4,-2.5 -4.892,-2.777 -5.319,-2.969l-0.107,-0.62h0.021l5.81,3.418v9.1a8.565,8.565 0,0 0,1.73 1.9m68.425,-12.8c0,-1 0.021,-1.346 0.449,-1.773 0.192,0.021 0.6,0.085 0.833,0.107v12.07a6.885,6.885 0,0 1,-1.88 0.257,7.634 7.634,0 0,1 -2.649,-0.449c1.2,-0.47 2.435,-1 3.4,-1.473a15.3,15.3 0,0 1,-0.15 -2.094zM99.742,8.98c0,-1.175 -0.064,-2.136 -0.107,-2.649l0.513,-0.363h0.021v11.814l-0.385,0.3h-0.042zM33.218,5.48a5.079,5.079 0,0 0,-1.346 3.973v5.384c0,2.457 -0.107,3.439 -1.795,5.4l-0.021,-0.021c1.367,-1.794 1.41,-2.777 1.41,-5.255v-5.405c0,-1.987 0.214,-2.35 1.73,-4.08zM42.361,20.648 L41.934,20.926a8.652,8.652 0,0 1,-1.965 -1.773v-11.391a11.758,11.758 0,0 0,-0.192 -2.435l0.513,-0.363a20.674,20.674 0,0 1,0.107 2.606v11.408a8.086,8.086 0,0 0,1.965 1.666m-8.951,-16.236 l0.021,0.021a2.772,2.772 0,0 1,-1.6 0.62c-0.619,0 -1.154,-0.3 -1.709,-0.3a1.872,1.872 0,0 0,-1.346 0.513,1.564 1.564,0 0,0 -0.342,0.449h-0.021a1.607,1.607 0,0 1,0.427 -0.79,1.976 1.976,0 0,1 1.409,-0.512c0.6,0 1.2,0.3 1.837,0.3a3.12,3.12 0,0 0,1.325 -0.3m13.031,-0.256a18.879,18.879 0,0 0,1.688 1.88l-0.342,0.214a14.573,14.573 0,0 1,-1.645 -1.88zM148.621,4.132a22.47,22.47 0,0 0,1.709 1.9l-0.342,0.214a16.866,16.866 0,0 1,-1.688 -1.9zM132.742,7.677a3.193,3.193 0,0 1,0.812 -1.6,4.78 4.78,0 0,1 3.525,-1.175c2.435,0 5.341,0.747 7.242,0.747a2.672,2.672 0,0 0,2.457 -1.6l0.064,0.021c-0.706,1.432 -1.538,1.923 -2.628,1.923 -1.9,0 -4.764,-0.747 -7.242,-0.747a4.539,4.539 0,0 0,-3.4 1.154,3.359 3.359,0 0,0 -0.812,1.26h-0.018zM103.219,3.746 L103.112,3.682c-1.6,1 -2.864,1.88 -3.781,2.585a12.768,12.768 0,0 1,0.107 1.645,17.106 17.106,0 0,1 -1.154,2.179l0.064,0.086h1.09v8.032c-0.256,0.192 -0.449,0.342 -0.706,0.513v0.064a14.968,14.968 0,0 0,3.268 2.606h0.064a24.888,24.888 0,0 1,3.418 -2.158l-0.171,-0.278a7.959,7.959 0,0 0,-0.747 0.342,12.535 12.535,0 0,1 -1.6,-1v-8.1h0.149a18.3,18.3 0,0 1,1.987 0.086,11.028 11.028,0 0,0 1.645,-2.585l-0.064,-0.064a17.989,17.989 0,0 1,-2.521 0.15h-1.2a32.928,32.928 0,0 1,0.256 -4.038m-30.57,17.539h0.064a79.569,79.569 0,0 1,3.4 -2.329l-0.171,-0.278c-0.342,0.15 -0.641,0.3 -0.961,0.449a4.647,4.647 0,0 1,-0.747 -0.706v-6.879c0,-1.473 0.064,-2.2 0.107,-2.777 -6.473,-3.995 -8.289,-5.234 -9.271,-6.345l-0.107,0.021a20.775,20.775 0,0 0,0.47 4.593,23.629 23.629,0 0,1 2.82,1.517 54.035,54.035 0,0 1,-3.4 1.538,23.661 23.661,0 0,1 0.107,2.82v6.152a7.551,7.551 0,0 0,2.435 2.2h0.064a60.1,60.1 0,0 1,3.226 -2.158,8.5 8.5,0 0,0 1.965,2.179M47.742,6.609h0.064a38.73,38.73 0,0 0,2.606 -1.923v-0.068a27.264,27.264 0,0 0,-1.965 -2.243h-0.064c-0.833,0.6 -1.709,1.2 -2.628,1.966v0.064a15.5,15.5 0,0 0,1.987 2.2m102.135,0h0.064a38.986,38.986 0,0 0,2.606 -1.923v-0.064a27.264,27.264 0,0 0,-1.965 -2.243h-0.064c-0.833,0.6 -1.709,1.2 -2.628,1.966v0.064a16.906,16.906 0,0 0,1.987 2.2m-113.287,12.885 l0.021,-0.064v-7.071h3.1v6.943a10.513,10.513 0,0 0,2.2 1.987h0.064a38.245,38.245 0,0 1,3.7 -2.435l-0.171,-0.3c-0.363,0.15 -0.662,0.3 -0.983,0.449a2.88,2.88 0,0 1,-1.068 -0.876v-11.664a14.728,14.728 0,0 1,0.449 -4.037l-0.107,-0.064a29.2,29.2 0,0 0,-4.337 2.948,9.089 9.089,0 0,1 0.256,2.5v2.158h-3.082v-3.7a9.745,9.745 0,0 1,0.513 -3.824l-0.085,-0.021c-0.747,1.025 -1,1.9 -1,4.059v12.54a3.444,3.444 0,0 0,-1.688 -0.385,6.441 6.441,0 0,0 -2.329,0.449l-0.021,-0.021c2.734,-2.435 2.82,-2.864 2.82,-4.636v-7.564a7.855,7.855 0,0 1,0.876 -4.316l-0.085,-0.085a3.428,3.428 0,0 1,-1.73 0.513c-0.833,0 -1.965,-0.427 -2.969,-0.427a2.762,2.762 0,0 0,-1.965 0.747,2.591 2.591,0 0,0 -0.747,1.816 3.637,3.637 0,0 0,0.171 1.089h0.064a1.57,1.57 0,0 1,0.427 -0.706,1.593 1.593,0 0,1 1.175,-0.449c0.662,0 1.111,0.278 1.73,0.278a3.5,3.5 0,0 0,2.072 -0.876l0.021,0.021c-2.521,2.628 -2.606,3.1 -2.606,5.127v0.363a10.748,10.748 0,0 1,-1.154 -0.107,25.845 25.845,0 0,0 -2.072,2.606l0.064,0.064a12.436,12.436 0,0 1,2.051 -0.15h1.111v3.461c0,2.136 -0.3,3.012 -2.094,5.319l0.085,0.107a7.006,7.006 0,0 1,2.8 -0.619,2.441 2.441,0 0,1 1.773,0.641h0.064a12.573,12.573 0,0 1,2.692 -1.795m98.29,-6.836a6.668,6.668 0,0 1,2.051 -4.785l-0.086,-0.107a8.092,8.092 0,0 0,-3.247 2.008,6.154 6.154,0 0,0 -1.773,4.337 6.774,6.774 0,0 0,2.051 5,8.15 8.15,0 0,0 5.96,2.286 7.462,7.462 0,0 0,5.49 -2.137,6.414 6.414,0 0,0 1.816,-4.358l-0.15,-0.021a6.788,6.788 0,0 1,-3.611 3.162v-11.808c0.427,0.021 0.662,0.021 0.79,0.021 1.624,0 2.864,-1.025 3.5,-4.166l-0.15,-0.064a2.882,2.882 0,0 1,-2.585 1.111c-1.88,0 -4.956,-0.747 -7.242,-0.747a5.994,5.994 0,0 0,-4.316 1.559,3.544 3.544,0 0,0 -1.09,2.649 4.511,4.511 0,0 0,0.363 1.73h0.085a3.524,3.524 0,0 1,0.919 -1.709,4.371 4.371,0 0,1 3.247,-1.154 32.221,32.221 0,0 1,4.593 0.47c-1.154,0.427 -2.628,1.025 -3.59,1.473a11.5,11.5 0,0 1,0.214 2.371v6.473c0,0.876 -0.021,1.239 -0.278,1.559a4.667,4.667 0,0 1,-1.239 -0.833,5.865 5.865,0 0,1 -1.73,-4.316" id="path_0"/><path fill="#fff" d="M1.045,11.829a11,11.5 0,1 0,22 0a11,11.5 0,1 0,-22 0z" id="path_1"/><path fill="#00b1cd" d="m17.637,14.141 l-1.764,0.962v0.032a3.58,3.58 0,0 0,1.6 0.321,3.857 3.857,0 0,0 1.218,-0.159v-7.217l-0.481,-0.032 -0.609,0.578v5.515zM3.913,10.55v-0.159c0,-1.315 0.032,-1.443 1.443,-3.335l-0.032,-0.032 -1.154,0.641h-0.866c-0.449,0 -0.609,0.032 -0.77,0.224a0.613,0.613 0,0 0,-0.128 0.481h-0.159a1.337,1.337 0,0 1,-0.224 -0.737,1.375 1.375,0 0,1 0.381,-1.03 1.589,1.589 0,0 1,1.251 -0.385l1.25,0.1 0.866,-0.1 0.128,0.064v6.99c0,0.834 -0.032,1.09 -1.828,2.822l0.032,0.064 1.6,-0.481h0.994v-9.52h0.481v4.393h1.8v-3.175l2.277,-1.251 0.128,0.064 -0.256,1.892v6.99l1.09,0.8v0.133l-1.667,1.09h-0.13l-1.411,-1.347v-3.818h-1.8v4.3l-1.347,0.9h-3.142l-0.064,-0.128c1.218,-1.507 1.315,-1.956 1.315,-2.822v-2.217h-2.02l-0.032,-0.128 0.9,-1.251h1.09zM14.174,12.057a3.555,3.555 0,0 0,0.962 2.565,1.4 1.4,0 0,0 0.353,0.289h0.032l0.385,-0.481v-5.516l1.667,-0.9v-0.032a14.1,14.1 0,0 0,-1.86 -0.192c-1.218,0 -1.7,0.224 -2.052,0.578a1.448,1.448 0,0 0,-0.385 0.866h-0.257a2.847,2.847 0,0 1,-0.192 -0.962,1.951 1.951,0 0,1 0.578,-1.443 3.332,3.332 0,0 1,2.469 -0.77c0.9,0 2.373,0.289 3.623,0.289 0.866,0 1.122,-0.128 1.507,-0.673l0.159,0.032c-0.289,1.86 -0.994,2.373 -1.956,2.373h-0.1L19.107,15.103a3.254,3.254 0,0 0,1.764 -1.539l0.159,0.032a3.356,3.356 0,0 1,-0.994 2.277,4.507 4.507,0 0,1 -3.238,1.218 4.119,4.119 0,0 1,-4.361 -4.233,3.78 3.78,0 0,1 1.09,-2.693 4.489,4.489 0,0 1,1.635 -1.058l0.1,0.128a4.329,4.329 0,0 0,-1.09 2.822m9.555,-0.353a11.564,11.564 0,0 0,-3.335 -8.273,12.315 12.315,0 0,0 -17.058,0 11.929,11.929 0,0 0,0 16.545,12.317 12.317,0 0,0 17.058,0 11.7,11.7 0,0 0,3.335 -8.273" id="path_2"/></svg>